# xmcd
#
# Track frame offsets:
#	150
#	17966
#	33217
#	50268
#	69758
#	85896
#	119520
#	139596
#	155462
#	174877
#	188572
#	213658
#	228968
#	245113
#
# Disc length: 3503 seconds
#
# Revision: 1
# Processed by: cddbd v1.5.2PL0 Copyright (c) Steve Scherf et al.
# Submitted via: audiograbber 1.83.01
#
DISCID=b30dad0e
DTITLE=Waigu O Minge - Evening Near Moscow
DYEAR=2007
DGENRE=Ballad
TTITLE0=The Evening Of The Moscow Outskirts
TTITLE1=Ke Qiu Sha
TTITLE2=It Is Heavy To Return The Su Han The Tou
TTITLE3=Snow Rong Flower
TTITLE4=Comity Ground The Long Day Is Long
TTITLE5=Hawthorn Tree
TTITLE6=The Red Chrysanthemum Son Opens
TTITLE7=Three Car
TTITLE8=Sell To Spend The Miss
TTITLE9=Treasure
TTITLE10=Ge Son
TTITLE11=Paddle Boat Song
TTITLE12=Red River Wood
TTITLE13=Path
EXTD=
EXTT0=
EXTT1=
EXTT2=
EXTT3=
EXTT4=
EXTT5=
EXTT6=
EXTT7=
EXTT8=
EXTT9=
EXTT10=
EXTT11=
EXTT12=
EXTT13=
PLAYORDER=
